<svg width="22" height="22" viewBox="0 0 22 22" fill="none" xmlns="http://www.w3.org/2000/svg">
<path d="M7.33331 9.16667V6.41667V6.41667C7.33331 4.39175 8.97506 2.75 11 2.75V2.75C13.0249 2.75 14.6666 4.39175 14.6666 6.41667V6.41667V9.16667" stroke="#A2A2A7" stroke-width="1.3" stroke-linecap="round" stroke-linejoin="round"/>
<path fill-rule="evenodd" clip-rule="evenodd" d="M15.5833 19.25H6.41665C5.40373 19.25 4.58331 18.4296 4.58331 17.4167V11C4.58331 9.9871 5.40373 9.16669 6.41665 9.16669H15.5833C16.5962 9.16669 17.4166 9.9871 17.4166 11V17.4167C17.4166 18.4296 16.5962 19.25 15.5833 19.25Z" stroke="#A2A2A7" stroke-width="1.3" stroke-linecap="round" stroke-linejoin="round"/>
<path d="M8.25002 14.2459C8.24727 14.2459 8.24544 14.2478 8.24544 14.2505C8.24544 14.2533 8.24727 14.2551 8.25002 14.2551C8.25277 14.2551 8.2546 14.2533 8.2546 14.2505C8.2546 14.2478 8.25277 14.2459 8.25002 14.2459" stroke="#A2A2A7" stroke-width="1.5" stroke-linecap="round" stroke-linejoin="round"/>
<path d="M11.0046 14.2459C11.0018 14.2459 11 14.2478 11 14.2505C11 14.2533 11.0028 14.2551 11.0046 14.2551C11.0073 14.2551 11.0092 14.2533 11.0092 14.2505C11.0092 14.2478 11.0073 14.2459 11.0046 14.2459" stroke="#A2A2A7" stroke-width="1.5" stroke-linecap="round" stroke-linejoin="round"/>
<path d="M13.75 14.2459C13.7473 14.2459 13.7454 14.2478 13.7454 14.2505C13.7454 14.2533 13.7473 14.2551 13.75 14.2551C13.7528 14.2551 13.7546 14.2533 13.7546 14.2505C13.7546 14.2478 13.7528 14.2459 13.75 14.2459" stroke="#A2A2A7" stroke-width="1.5" stroke-linecap="round" stroke-linejoin="round"/>
</svg>
