<svg width="25" height="24" viewBox="0 0 25 24" fill="none" xmlns="http://www.w3.org/2000/svg">
<path d="M23 13C23 19.072 18.0775 24 12 24C5.9225 24 1 19.072 1 13C1 6.9225 5.9225 2 12 2C18.0775 2 23 6.9225 23 13Z" fill="black"/>
<path d="M16.6872 10.093C16.6327 10.1265 15.3336 10.8319 15.3336 12.3959C15.3948 14.1796 16.9729 14.8051 17 14.8051C16.9729 14.8385 16.7618 15.6572 16.1362 16.5154C15.6397 17.2547 15.0887 18 14.252 18C13.4561 18 13.1704 17.5073 12.252 17.5073C11.2657 17.5073 10.9867 18 10.2316 18C9.39483 18 8.803 17.2147 8.27948 16.4824C7.59935 15.5239 7.02127 14.0198 7.00086 12.5756C6.98711 11.8103 7.13706 11.058 7.51772 10.419C8.05499 9.52699 9.01418 8.92143 10.0617 8.90146C10.8642 8.87498 11.5785 9.4406 12.0683 9.4406C12.5377 9.4406 13.4153 8.90146 14.4082 8.90146C14.8367 8.9019 15.9796 9.02822 16.6872 10.093ZM12.0004 8.74866C11.8576 8.04978 12.252 7.35089 12.6193 6.90508C13.0887 6.36594 13.8301 6 14.4694 6C14.5102 6.69889 14.2515 7.38432 13.7893 7.88352C13.3744 8.42266 12.6601 8.82853 12.0004 8.74866Z" fill="white"/>
</svg>
