<svg width="24" height="24" viewBox="0 0 24 24" fill="none" xmlns="http://www.w3.org/2000/svg">
<path d="M0.0249186 3.50932C0.0249186 3.15606 0.165248 2.81728 0.415037 2.56749C0.664826 2.3177 1.00361 2.17737 1.35687 2.17737H8.01661C8.36987 2.17737 8.70865 2.3177 8.95844 2.56749C9.20823 2.81728 9.34856 3.15606 9.34856 3.50932V10.1691C9.34856 10.5223 9.20823 10.8611 8.95844 11.1109C8.70865 11.3607 8.36987 11.501 8.01661 11.501H1.35687C1.00361 11.501 0.664826 11.3607 0.415037 11.1109C0.165248 10.8611 0.0249186 10.5223 0.0249186 10.1691V3.50932ZM2.02284 9.50309H7.35064V4.17529H2.02284V9.50309ZM13.0114 2.84334C12.7465 2.84334 12.4924 2.94859 12.305 3.13593C12.1177 3.32327 12.0125 3.57736 12.0125 3.8423C12.0125 4.10725 12.1177 4.36134 12.305 4.54868C12.4924 4.73602 12.7465 4.84127 13.0114 4.84127H23.001C23.266 4.84127 23.5201 4.73602 23.7074 4.54868C23.8948 4.36134 24 4.10725 24 3.8423C24 3.57736 23.8948 3.32327 23.7074 3.13593C23.5201 2.94859 23.266 2.84334 23.001 2.84334H13.0114ZM13.0114 10.835C12.7465 10.835 12.4924 10.9403 12.305 11.1276C12.1177 11.315 12.0125 11.5691 12.0125 11.834C12.0125 12.0989 12.1177 12.353 12.305 12.5404C12.4924 12.7277 12.7465 12.833 13.0114 12.833H23.001C23.266 12.833 23.5201 12.7277 23.7074 12.5404C23.8948 12.353 24 12.0989 24 11.834C24 11.5691 23.8948 11.315 23.7074 11.1276C23.5201 10.9403 23.266 10.835 23.001 10.835H13.0114ZM13.0114 18.8267C12.7465 18.8267 12.4924 18.932 12.305 19.1193C12.1177 19.3067 12.0125 19.5607 12.0125 19.8257C12.0125 20.0906 12.1177 20.3447 12.305 20.5321C12.4924 20.7194 12.7465 20.8247 13.0114 20.8247H23.001C23.266 20.8247 23.5201 20.7194 23.7074 20.5321C23.8948 20.3447 24 20.0906 24 19.8257C24 19.5607 23.8948 19.3067 23.7074 19.1193C23.5201 18.932 23.266 18.8267 23.001 18.8267H13.0114ZM9.05553 15.4569C9.2426 15.6442 9.34768 15.8981 9.34768 16.1628C9.34768 16.4276 9.2426 16.6815 9.05553 16.8688L4.39371 21.5306C4.20641 21.7177 3.9525 21.8227 3.68778 21.8227C3.42305 21.8227 3.16915 21.7177 2.98184 21.5306L0.317947 18.8667C0.2198 18.7752 0.141079 18.6649 0.0864801 18.5424C0.0318809 18.4199 0.00252205 18.2876 0.000155467 18.1535C-0.00221112 18.0193 0.0224628 17.8861 0.0727052 17.7617C0.122948 17.6373 0.197729 17.5243 0.292589 17.4295C0.387449 17.3346 0.500443 17.2598 0.624832 17.2096C0.74922 17.1593 0.882454 17.1347 1.01658 17.137C1.15072 17.1394 1.283 17.1688 1.40553 17.2234C1.52807 17.278 1.63836 17.3567 1.72981 17.4548L3.68778 19.4128L7.64367 15.4569C7.83097 15.2698 8.08487 15.1647 8.3496 15.1647C8.61432 15.1647 8.86823 15.2698 9.05553 15.4569Z" fill="#8B8B94"/>
</svg>
