<svg width="18" height="19" viewBox="0 0 18 19" fill="none" xmlns="http://www.w3.org/2000/svg">
<path fill-rule="evenodd" clip-rule="evenodd" d="M11.0278 17.9594L15.1941 17.0285C15.9572 16.8589 16.5 16.1786 16.5 15.3938V3.6062C16.5 2.82136 15.9572 2.14111 15.195 1.97151L11.0288 1.04064C9.98719 0.807923 9 1.60407 9 2.67627V16.3247C9 17.3959 9.98719 18.1921 11.0278 17.9594V17.9594Z" stroke="#D11F1F" stroke-width="1.3" stroke-linecap="round" stroke-linejoin="round"/>
<path d="M11.8125 8.5188V10.4032" stroke="#D11F1F" stroke-width="1.3" stroke-linecap="round" stroke-linejoin="round"/>
<path d="M1.5 13.2485V15.1725C1.5 16.2136 2.33906 17.0568 3.375 17.0568H6.1875" stroke="#D11F1F" stroke-width="1.3" stroke-linecap="round" stroke-linejoin="round"/>
<path d="M1.5 5.71122V3.82686C1.5 2.78576 2.33906 1.9425 3.375 1.9425H6.1875" stroke="#D11F1F" stroke-width="1.3" stroke-linecap="round" stroke-linejoin="round"/>
<path d="M1.5 9.4797H6.1875" stroke="#D11F1F" stroke-width="1.3" stroke-linecap="round" stroke-linejoin="round"/>
<path d="M4.3125 11.3642L6.1875 9.47982L4.3125 7.59546" stroke="#D11F1F" stroke-width="1.3" stroke-linecap="round" stroke-linejoin="round"/>
</svg>
