<svg width="24" height="24" viewBox="0 0 24 24" fill="none" xmlns="http://www.w3.org/2000/svg">
<path d="M6 9.32455C6 6.74197 7.65258 4.44914 10.1026 3.63246C11.3342 3.22192 12.6658 3.22192 13.8974 3.63246C16.3474 4.44914 18 6.74197 18 9.32455V18H6V9.32455Z" fill="#0066FF"/>
<path d="M20 17H22V19H2V17H4V10C4 5.58172 7.58172 2 12 2C16.4183 2 20 5.58172 20 10V17ZM18 17V10C18 6.68629 15.3137 4 12 4C8.68629 4 6 6.68629 6 10V17H18ZM9 21H15V23H9V21Z" fill="#0066FF"/>
<circle cx="17.5" cy="4.5" r="3" fill="#0066FF" stroke="#F4F4F4"/>
</svg>
