<svg width="213" height="278" viewBox="0 0 213 278" fill="none" xmlns="http://www.w3.org/2000/svg">
<path d="M102.772 178.615C135.628 178.615 162.263 151.928 162.263 119.007C162.263 86.0861 135.628 59.3985 102.772 59.3985C69.9158 59.3985 43.2808 86.0861 43.2808 119.007C43.2808 151.928 69.9158 178.615 102.772 178.615Z" fill="#FFC1C1"/>
<path d="M183.658 195.453H25.5903V191.874H183.658C183.743 191.874 183.827 191.891 183.905 191.923C183.983 191.956 184.055 192.003 184.115 192.063C184.174 192.124 184.222 192.195 184.255 192.273C184.287 192.352 184.304 192.436 184.304 192.521V194.806C184.304 194.978 184.236 195.142 184.115 195.264C183.993 195.385 183.829 195.453 183.658 195.453Z" fill="#425AC2"/>
<path d="M26.8827 192.534H25.5776V277.37H26.8827V192.534Z" fill="#425AC2"/>
<path d="M183.658 192.534H183.645C183.288 192.534 182.999 192.824 182.999 193.182V276.723C182.999 277.081 183.288 277.37 183.645 277.37H183.658C184.015 277.37 184.304 277.081 184.304 276.723V193.182C184.304 192.824 184.015 192.534 183.658 192.534Z" fill="#425AC2"/>
<path d="M91.9631 53.6651C91.5431 54.0845 90.9743 54.32 90.3813 54.32C89.7883 54.32 89.2194 54.0845 88.7994 53.6651C88.3808 53.2442 88.1458 52.6743 88.1458 52.0801C88.1458 51.4859 88.3808 50.916 88.7994 50.4952L92.5695 46.7308C92.7746 46.5203 93.0196 46.3531 93.2901 46.2389C93.5606 46.1247 93.8512 46.0659 94.1448 46.0659C94.4383 46.0659 94.7289 46.1247 94.9995 46.2389C95.27 46.3531 95.515 46.5203 95.72 46.7308C95.9301 46.9363 96.097 47.1818 96.211 47.4528C96.325 47.7239 96.3837 48.0151 96.3837 48.3092C96.3837 48.6033 96.325 48.8945 96.211 49.1656C96.097 49.4366 95.9301 49.6821 95.72 49.8876L91.9631 53.6651Z" fill="#8EA8DD"/>
<path d="M118.631 53.6652C119.051 54.0846 119.62 54.3201 120.213 54.3201C120.806 54.3201 121.375 54.0846 121.795 53.6652C122.213 53.2443 122.448 52.6743 122.448 52.0802C122.448 51.486 122.213 50.9161 121.795 50.4952L118.025 46.7309C117.819 46.52 117.572 46.3525 117.301 46.2382C117.029 46.1238 116.737 46.0649 116.443 46.0649C116.148 46.0649 115.857 46.1238 115.585 46.2382C115.313 46.3525 115.067 46.52 114.861 46.7309C114.443 47.1495 114.208 47.7173 114.208 48.3093C114.208 48.9013 114.443 49.469 114.861 49.8877L118.631 53.6652Z" fill="#8EA8DD"/>
<path d="M94.5334 11.1873C93.8847 10.2231 93.536 9.08773 93.5315 7.9249C93.5315 3.5662 98.633 0 104.895 0C111.156 0 116.258 3.53979 116.258 7.9249C116.252 8.99659 115.956 10.0466 115.401 10.9628L113.727 9.97217C114.107 9.35685 114.312 8.6488 114.32 7.9249C114.32 4.6889 110.009 1.96802 104.895 1.96802C99.7798 1.96802 95.4693 4.6889 95.4693 7.9249C95.4779 8.71343 95.7212 9.48144 96.1679 10.1307L94.5334 11.1873Z" fill="#A4B8EA"/>
<path d="M116.158 9.6432L112.3 15.6688L120.033 20.6396L123.891 14.614L116.158 9.6432Z" fill="#FFC1C1"/>
<path d="M112.87 11.029C113.044 10.6614 113.247 10.3081 113.476 9.9723C114.556 8.50631 116.167 7.52319 117.963 7.23407C119.758 6.94495 121.595 7.37289 123.08 8.42598C124.564 9.47908 125.577 11.0733 125.901 12.8664C126.225 14.6595 125.834 16.5084 124.813 18.0161C124.578 18.348 124.313 18.6575 124.022 18.9407L112.87 11.029Z" fill="#FE958E"/>
<path d="M93.7108 9.99154L85.9773 14.9623L89.8351 20.9879L97.5686 16.0171L93.7108 9.99154Z" fill="#FFC1C1"/>
<path d="M120.045 48.2089C128.293 39.9456 128.293 26.5482 120.045 18.2849C111.798 10.0216 98.4274 10.0216 90.1804 18.2849C81.9333 26.5482 81.9333 39.9456 90.1804 48.2089C98.4274 56.4722 111.798 56.4722 120.045 48.2089Z" fill="#FE958E"/>
<path d="M109.177 50.3542C118.612 48.109 124.444 38.6253 122.203 29.1717C119.962 19.7182 110.497 13.8747 101.062 16.1199C91.6273 18.365 85.7953 27.8487 88.036 37.3023C90.2768 46.7558 99.7418 52.5993 109.177 50.3542Z" fill="#FEE2E3"/>
<path d="M105.778 17.9238C105.78 18.0549 105.744 18.1839 105.673 18.2942C105.602 18.4045 105.5 18.4912 105.38 18.5432C105.26 18.5953 105.127 18.6102 104.998 18.5863C104.87 18.5623 104.751 18.5005 104.658 18.4087C104.564 18.3168 104.5 18.1992 104.473 18.0708C104.447 17.9423 104.459 17.8088 104.509 17.6874C104.558 17.566 104.643 17.462 104.751 17.3888C104.86 17.3157 104.988 17.2766 105.119 17.2766C105.205 17.2748 105.29 17.2903 105.37 17.322C105.45 17.3537 105.523 17.4011 105.584 17.4614C105.645 17.5217 105.694 17.5936 105.727 17.673C105.761 17.7524 105.778 17.8377 105.778 17.9238Z" fill="#425AC2"/>
<path d="M98.0399 19.6536C98.0845 19.7279 98.1138 19.8103 98.126 19.8961C98.1382 19.9819 98.1331 20.0693 98.1109 20.153C98.0888 20.2368 98.0501 20.3152 97.9972 20.3837C97.9442 20.4522 97.8781 20.5094 97.8027 20.5518C97.6533 20.6343 97.4779 20.6557 97.3132 20.6114C97.1485 20.567 97.0074 20.4605 96.9194 20.3141C96.837 20.1644 96.8157 19.9887 96.86 19.8236C96.9042 19.6586 97.0106 19.5172 97.1567 19.4291C97.3036 19.342 97.4791 19.3167 97.6446 19.3587C97.8101 19.4008 97.9522 19.5068 98.0399 19.6536Z" fill="#425AC2"/>
<path d="M92.2135 25.0162C92.2885 25.0573 92.3544 25.1132 92.4072 25.1805C92.46 25.2478 92.4987 25.3251 92.5208 25.4078C92.543 25.4905 92.5483 25.5769 92.5362 25.6616C92.5242 25.7464 92.4951 25.8279 92.4508 25.9011C92.3629 26.0475 92.2217 26.1541 92.0571 26.1984C91.8924 26.2428 91.7169 26.2214 91.5676 26.1389C91.494 26.0964 91.4295 26.0398 91.3778 25.9723C91.326 25.9048 91.2881 25.8278 91.266 25.7456C91.244 25.6634 91.2383 25.5777 91.2494 25.4934C91.2604 25.409 91.2879 25.3276 91.3303 25.2539C91.3727 25.1802 91.4292 25.1156 91.4965 25.0637C91.5639 25.0119 91.6407 24.9738 91.7227 24.9518C91.8048 24.9297 91.8903 24.924 91.9745 24.9351C92.0587 24.9461 92.1399 24.9737 92.2135 25.0162Z" fill="#425AC2"/>
<path d="M89.841 32.5846C89.9687 32.5846 90.0936 32.6226 90.1998 32.6937C90.306 32.7648 90.3888 32.8659 90.4377 32.9841C90.4866 33.1024 90.4994 33.2325 90.4745 33.3581C90.4496 33.4836 90.388 33.5989 90.2977 33.6894C90.2074 33.78 90.0923 33.8416 89.967 33.8666C89.8417 33.8915 89.7118 33.8787 89.5938 33.8297C89.4757 33.7807 89.3749 33.6978 89.3039 33.5914C89.233 33.4849 89.1951 33.3598 89.1951 33.2318C89.1951 33.0602 89.2631 32.8955 89.3842 32.7742C89.5054 32.6528 89.6697 32.5846 89.841 32.5846Z" fill="#425AC2"/>
<path d="M91.568 40.3243C91.7174 40.2418 91.8928 40.2204 92.0575 40.2647C92.2222 40.3091 92.3633 40.4157 92.4513 40.5621C92.5149 40.673 92.5443 40.8003 92.5357 40.928C92.5272 41.0556 92.4811 41.1779 92.4032 41.2793C92.3254 41.3807 92.2193 41.4567 92.0983 41.4977C91.9774 41.5387 91.847 41.5429 91.7237 41.5097C91.6004 41.4765 91.4896 41.4074 91.4055 41.3112C91.3213 41.215 91.2675 41.0959 91.2509 40.9691C91.2342 40.8422 91.2555 40.7133 91.3119 40.5985C91.3684 40.4838 91.4575 40.3883 91.568 40.3243Z" fill="#425AC2"/>
<path d="M96.9194 46.1626C97.0074 46.0162 97.1485 45.9096 97.3132 45.8653C97.4779 45.8209 97.6533 45.8423 97.8027 45.9248C97.953 46.0107 98.0631 46.1528 98.1089 46.32C98.1546 46.4872 98.1322 46.6657 98.0465 46.8164C97.9609 46.967 97.819 47.0774 97.6521 47.1232C97.4853 47.169 97.307 47.1466 97.1567 47.0607C97.0096 46.9702 96.903 46.8264 96.8588 46.6592C96.8146 46.492 96.8363 46.3142 96.9194 46.1626Z" fill="#425AC2"/>
<path d="M104.473 48.5403C104.47 48.4086 104.507 48.2791 104.578 48.1685C104.65 48.0579 104.752 47.9712 104.873 47.9196C104.994 47.868 105.128 47.8538 105.257 47.8789C105.386 47.9039 105.505 47.9671 105.598 48.0602C105.691 48.1534 105.754 48.2723 105.779 48.4016C105.804 48.5309 105.789 48.6648 105.738 48.786C105.686 48.9072 105.6 49.0102 105.49 49.0817C105.379 49.1533 105.25 49.1901 105.118 49.1875C104.947 49.1875 104.783 49.1193 104.662 48.998C104.541 48.8766 104.473 48.7119 104.473 48.5403Z" fill="#425AC2"/>
<path d="M112.21 46.823C112.166 46.7488 112.136 46.6663 112.124 46.5805C112.112 46.4947 112.117 46.4074 112.139 46.3236C112.161 46.2398 112.2 46.1614 112.253 46.0929C112.306 46.0244 112.372 45.9673 112.447 45.9248C112.597 45.8423 112.772 45.8209 112.937 45.8653C113.102 45.9096 113.243 46.0162 113.331 46.1626C113.414 46.3142 113.435 46.492 113.391 46.6592C113.347 46.8264 113.24 46.9702 113.093 47.0607C112.944 47.1433 112.769 47.1646 112.604 47.1203C112.439 47.076 112.298 46.9694 112.21 46.823Z" fill="#425AC2"/>
<path d="M118.038 41.4475C117.963 41.4064 117.897 41.3505 117.844 41.2832C117.791 41.2159 117.753 41.1385 117.731 41.0558C117.708 40.9731 117.703 40.8868 117.715 40.802C117.727 40.7172 117.756 40.6358 117.801 40.5626C117.843 40.4888 117.9 40.4242 117.967 40.3724C118.034 40.3205 118.111 40.2825 118.193 40.2604C118.275 40.2383 118.361 40.2327 118.445 40.2437C118.529 40.2548 118.61 40.2823 118.684 40.3248C118.757 40.3673 118.822 40.4239 118.874 40.4914C118.925 40.5589 118.963 40.6359 118.985 40.7181C119.008 40.8002 119.013 40.886 119.002 40.9703C118.991 41.0547 118.964 41.1361 118.921 41.2098C118.88 41.2849 118.824 41.3509 118.757 41.4038C118.69 41.4567 118.613 41.4955 118.53 41.5177C118.448 41.5399 118.362 41.5452 118.277 41.5331C118.192 41.521 118.111 41.4919 118.038 41.4475Z" fill="#425AC2"/>
<path d="M120.411 33.879C120.768 33.879 121.057 33.5892 121.057 33.2318C121.057 32.8743 120.768 32.5846 120.411 32.5846C120.054 32.5846 119.765 32.8743 119.765 33.2318C119.765 33.5892 120.054 33.879 120.411 33.879Z" fill="#425AC2"/>
<path d="M118.684 26.1389C118.534 26.2214 118.359 26.2428 118.194 26.1984C118.029 26.1541 117.888 26.0475 117.8 25.9011C117.715 25.7522 117.692 25.5754 117.736 25.4094C117.781 25.2434 117.889 25.102 118.038 25.0162C118.186 24.9303 118.363 24.9072 118.528 24.9518C118.694 24.9963 118.835 25.105 118.921 25.2539C118.963 25.3276 118.991 25.409 119.002 25.4934C119.013 25.5777 119.007 25.6635 118.985 25.7457C118.963 25.8279 118.925 25.9049 118.874 25.9724C118.822 26.0399 118.757 26.0964 118.684 26.1389Z" fill="#425AC2"/>
<path d="M113.331 20.3013C113.243 20.4477 113.102 20.5543 112.937 20.5986C112.772 20.643 112.597 20.6216 112.447 20.539C112.372 20.4966 112.306 20.4395 112.253 20.371C112.2 20.3025 112.161 20.224 112.139 20.1403C112.117 20.0565 112.112 19.9692 112.124 19.8834C112.136 19.7976 112.166 19.7151 112.21 19.6409C112.298 19.4941 112.44 19.3881 112.606 19.346C112.771 19.3039 112.946 19.3292 113.093 19.4164C113.239 19.5045 113.346 19.6459 113.39 19.8109C113.434 19.9759 113.413 20.1517 113.331 20.3013Z" fill="#425AC2"/>
<path d="M98.0711 28.267L97.4409 29.4572L104.579 33.252L105.209 32.0619L98.0711 28.267Z" fill="#425AC2"/>
<path d="M115.756 26.5866L105.113 32.4664L105.596 33.3454L116.24 27.4656L115.756 26.5866Z" fill="#425AC2"/>
<path d="M108.204 33.232C108.22 33.8447 108.053 34.4482 107.725 34.9659C107.398 35.4835 106.924 35.8919 106.364 36.1391C105.805 36.3863 105.184 36.4612 104.582 36.3542C103.98 36.2472 103.423 35.9632 102.982 35.5383C102.541 35.1134 102.236 34.5667 102.106 33.9678C101.976 33.3688 102.027 32.7447 102.252 32.1747C102.477 31.6047 102.865 31.1146 103.369 30.7666C103.873 30.4187 104.468 30.2286 105.08 30.2205C105.892 30.2063 106.677 30.5153 107.263 31.0797C107.848 31.6441 108.187 32.418 108.204 33.232Z" fill="#FE958E"/>
<path d="M97.0248 11.3196C96.854 10.9475 96.6464 10.5935 96.4053 10.2629C95.3407 8.75835 93.7232 7.73917 91.9087 7.42954C90.0941 7.11991 88.2311 7.54521 86.7295 8.61188C85.2279 9.67855 84.2108 11.2992 83.9018 13.1173C83.5927 14.9355 84.0172 16.8021 85.0818 18.3067C85.316 18.6351 85.5761 18.9443 85.8595 19.2312L97.0248 11.3196Z" fill="#FE958E"/>
<path d="M3.063 90.7274C2.79227 90.8391 2.5021 90.896 2.20929 90.8946C1.91648 90.8933 1.62684 90.8338 1.35714 90.7195C1.08744 90.6053 0.843039 90.4386 0.638052 90.2291C0.433066 90.0196 0.271575 89.7715 0.16293 89.499C-0.0586812 88.9508 -0.0540605 88.3368 0.175803 87.7919C0.405667 87.2471 0.841967 86.8159 1.38886 86.5932L6.319 84.5724C6.86835 84.3534 7.48156 84.3595 8.02649 84.5892C8.57143 84.819 9.00444 85.2541 9.23225 85.8007C9.45435 86.3508 9.45008 86.9667 9.22036 87.5137C8.99064 88.0606 8.55416 88.4943 8.00632 88.7197L3.063 90.7274Z" fill="#8EA8DD"/>
<path d="M27.6473 101.109C27.7573 101.382 27.9201 101.63 28.1263 101.84C28.3326 102.05 28.5781 102.216 28.8489 102.33C29.1196 102.445 29.4103 102.504 29.704 102.505C29.9978 102.506 30.2889 102.449 30.5606 102.337C31.1084 102.112 31.5449 101.678 31.7746 101.131C32.0043 100.584 32.0086 99.9685 31.7865 99.4184L29.7696 94.4785C29.5473 93.9305 29.117 93.4934 28.5733 93.2631C28.0295 93.0327 27.4167 93.0281 26.8696 93.2502C26.5972 93.3604 26.3492 93.5235 26.14 93.7302C25.9308 93.9368 25.7644 94.1828 25.6505 94.4541C25.5365 94.7254 25.4773 95.0166 25.4761 95.311C25.4749 95.6053 25.5319 95.897 25.6436 96.1692L27.6473 101.109Z" fill="#8EA8DD"/>
<path d="M21.9121 52.595C21.6837 51.4503 21.8031 50.2633 22.2548 49.1872C23.9421 45.2248 30.0059 43.904 35.7797 46.3343C41.5535 48.7646 44.8886 54.0215 43.2013 58.0367C42.7801 59.0258 42.0962 59.8801 41.224 60.5067L40.0639 58.9349C40.6445 58.5143 41.1001 57.9437 41.3821 57.2839C42.7004 54.312 39.708 50.1118 35.002 48.1306C30.2959 46.1494 25.2603 46.9815 24.0212 49.9533C23.7205 50.6801 23.6424 51.4802 23.7971 52.2516L21.9121 52.595Z" fill="#A4B8EA"/>
<path d="M42.4191 59.6286L36.5288 63.6803L41.729 71.27L47.6193 67.2183L42.4191 59.6286Z" fill="#425AC2"/>
<path d="M38.8528 59.5818C39.155 59.3063 39.4815 59.0587 39.8283 58.8422C40.6463 58.3232 41.5637 57.9812 42.5214 57.8383C43.4791 57.6954 44.456 57.7547 45.3895 58.0123C46.323 58.27 47.1925 58.7203 47.9421 59.3344C48.6917 59.9485 49.3049 60.7129 49.7423 61.5784C50.1797 62.4439 50.4318 63.3915 50.4822 64.3603C50.5327 65.3292 50.3805 66.2979 50.0353 67.2044C49.6901 68.1108 49.1597 68.935 48.478 69.6239C47.7962 70.3129 46.9783 70.8514 46.0766 71.205L38.8528 59.5818Z" fill="#FFC1C1"/>
<path d="M21.63 51.1405L12.5771 52.7138L13.7982 59.7673L22.851 58.194L21.63 51.1405Z" fill="#425AC2"/>
<path d="M42.5827 85.2446C40.9566 89.0896 38.23 92.3658 34.7471 94.6595C31.2642 96.9531 27.1812 98.1614 23.0135 98.1319C18.8458 98.1023 14.7803 96.8362 11.3301 94.4934C7.87999 92.1506 5.19995 88.8361 3.62832 84.9683C2.05669 81.1006 1.66394 76.853 2.49966 72.7618C3.33538 68.6706 5.36211 64.9192 8.32397 61.9811C11.2858 59.0431 15.05 57.0502 19.1414 56.254C23.2327 55.4577 27.4678 55.8939 31.312 57.5074C33.8734 58.5825 36.1976 60.1538 38.1514 62.1312C40.1052 64.1087 41.6501 66.4532 42.6972 69.0303C43.7444 71.6075 44.2734 74.3664 44.2537 77.1489C44.2341 79.9313 43.6662 82.6826 42.5827 85.2446Z" fill="#FFC1C1"/>
<path d="M29.6968 93.3494C38.6855 89.7033 43.0224 79.4463 39.3834 70.4399C35.7444 61.4335 25.5076 57.0881 16.5189 60.7342C7.53021 64.3804 3.19339 74.6373 6.83236 83.6438C10.4713 92.6502 20.7081 96.9956 29.6968 93.3494Z" fill="#FEE2E3"/>
<path d="M29.6506 63.1616C29.6178 63.2405 29.5697 63.3122 29.5091 63.3725C29.4486 63.4328 29.3768 63.4806 29.2979 63.5131C29.2189 63.5456 29.1343 63.5622 29.049 63.5619C28.9636 63.5617 28.8792 63.5446 28.8004 63.5116C28.7216 63.4787 28.6501 63.4305 28.5899 63.3699C28.5298 63.3092 28.4821 63.2373 28.4496 63.1582C28.4172 63.079 28.4006 62.9943 28.4009 62.9088C28.4011 62.8233 28.4182 62.7386 28.4511 62.6597C28.5206 62.5015 28.6493 62.3769 28.8095 62.3127C28.9697 62.2485 29.1487 62.2498 29.3079 62.3163C29.4649 62.3833 29.589 62.5098 29.6532 62.6681C29.7175 62.8265 29.7165 63.0039 29.6506 63.1616Z" fill="#425AC2"/>
<path d="M21.8595 61.7485C21.8705 61.8336 21.8646 61.9201 21.842 62.0028C21.8194 62.0856 21.7806 62.163 21.7278 62.2306C21.6751 62.2982 21.6095 62.3546 21.5347 62.3966C21.46 62.4385 21.3778 62.4652 21.2927 62.475C21.1231 62.4975 20.9516 62.4518 20.8157 62.3478C20.6798 62.2438 20.5906 62.09 20.5676 61.9202C20.5566 61.8351 20.5626 61.7487 20.5852 61.6659C20.6078 61.5832 20.6466 61.5057 20.6993 61.4381C20.7521 61.3705 20.8177 61.3141 20.8924 61.2722C20.9671 61.2302 21.0494 61.2036 21.1345 61.1938C21.304 61.1713 21.4755 61.217 21.6114 61.321C21.7474 61.425 21.8366 61.5787 21.8595 61.7485Z" fill="#425AC2"/>
<path d="M14.3995 64.4303C14.4535 64.4971 14.4934 64.5742 14.5167 64.6569C14.5401 64.7397 14.5464 64.8263 14.5353 64.9115C14.5242 64.9968 14.4959 65.0789 14.4522 65.1528C14.4084 65.2268 14.3501 65.291 14.2808 65.3417C14.2126 65.3934 14.1349 65.431 14.0521 65.4523C13.9693 65.4737 13.8831 65.4783 13.7985 65.466C13.7139 65.4538 13.6325 65.4248 13.5592 65.3807C13.4859 65.3367 13.422 65.2785 13.3712 65.2096C13.32 65.1424 13.2827 65.0655 13.2616 64.9836C13.2405 64.9017 13.2359 64.8164 13.2482 64.7327C13.2605 64.649 13.2894 64.5686 13.3331 64.4963C13.3769 64.4239 13.4347 64.3611 13.5031 64.3115C13.5686 64.2576 13.6445 64.2179 13.726 64.1946C13.8075 64.1714 13.8929 64.1651 13.977 64.1763C14.061 64.1874 14.1418 64.2157 14.2145 64.2594C14.2872 64.3031 14.3501 64.3613 14.3995 64.4303Z" fill="#425AC2"/>
<path d="M9.28444 70.48C9.44235 70.5497 9.56671 70.6786 9.63079 70.8391C9.69487 70.9996 9.69356 71.179 9.62717 71.3385C9.56032 71.4958 9.43408 71.6202 9.27601 71.6845C9.11795 71.7489 8.94089 71.748 8.78351 71.682C8.70464 71.6502 8.63295 71.6029 8.57273 71.5428C8.51251 71.4827 8.46498 71.4111 8.433 71.3322C8.40101 71.2533 8.38522 71.1688 8.38655 71.0836C8.38789 70.9985 8.40633 70.9145 8.44078 70.8366C8.47264 70.7576 8.51977 70.6856 8.57947 70.6248C8.63917 70.5641 8.71025 70.5158 8.78864 70.4826C8.86703 70.4495 8.95118 70.4322 9.03627 70.4318C9.12135 70.4313 9.2057 70.4477 9.28444 70.48Z" fill="#425AC2"/>
<path d="M7.87487 78.2845C7.9598 78.2735 8.04607 78.2794 8.12868 78.3021C8.21128 78.3247 8.28856 78.3636 8.35603 78.4164C8.4235 78.4693 8.4798 78.535 8.52167 78.6099C8.56354 78.6847 8.59012 78.7672 8.5999 78.8525C8.61442 78.9792 8.59125 79.1074 8.53326 79.221C8.47527 79.3346 8.38505 79.4285 8.27396 79.4909C8.16288 79.5533 8.03587 79.5813 7.90891 79.5716C7.78194 79.5619 7.66066 79.5148 7.56034 79.4362C7.46002 79.3576 7.38512 79.2511 7.34506 79.1299C7.30499 79.0088 7.30155 78.8785 7.33516 78.7555C7.36877 78.6324 7.43795 78.5221 7.53397 78.4383C7.63 78.3545 7.7486 78.301 7.87487 78.2845Z" fill="#425AC2"/>
<path d="M10.5497 85.7615C10.6166 85.7038 10.6946 85.6604 10.7788 85.634C10.8631 85.6076 10.9519 85.5988 11.0397 85.6082C11.1275 85.6175 11.2125 85.6449 11.2893 85.6884C11.3662 85.7319 11.4333 85.7908 11.4866 85.8613C11.5398 85.9319 11.5781 86.0126 11.599 86.0986C11.6199 86.1845 11.623 86.2739 11.6081 86.3611C11.5932 86.4483 11.5606 86.5315 11.5123 86.6056C11.464 86.6796 11.4011 86.743 11.3275 86.7917C11.1901 86.8942 11.0184 86.9391 10.8486 86.9169C10.6789 86.8947 10.5244 86.8072 10.4179 86.6729C10.3663 86.6046 10.3288 86.5267 10.3075 86.4437C10.2862 86.3608 10.2815 86.2744 10.2938 86.1896C10.306 86.1049 10.335 86.0234 10.3789 85.9499C10.4228 85.8764 10.4809 85.8123 10.5497 85.7615Z" fill="#425AC2"/>
<path d="M16.5873 90.8856C16.619 90.8066 16.6662 90.7348 16.7262 90.6744C16.7861 90.6141 16.8576 90.5664 16.9364 90.5344C17.0151 90.5023 17.0995 90.4865 17.1845 90.4879C17.2694 90.4892 17.3533 90.5077 17.431 90.5422C17.549 90.5917 17.6496 90.6751 17.7202 90.782C17.7908 90.8889 17.8282 91.0144 17.8275 91.1426C17.8268 91.2708 17.7882 91.3959 17.7165 91.502C17.6447 91.6082 17.5432 91.6906 17.4247 91.7388C17.3062 91.7871 17.176 91.7989 17.0508 91.773C16.9255 91.747 16.8107 91.6844 16.721 91.593C16.6313 91.5016 16.5707 91.3856 16.5469 91.2597C16.5231 91.1337 16.5372 91.0035 16.5873 90.8856Z" fill="#425AC2"/>
<path d="M24.3785 92.2989C24.364 92.1721 24.3872 92.0439 24.4451 91.9303C24.5031 91.8167 24.5933 91.7228 24.7044 91.6605C24.8155 91.5981 24.9425 91.57 25.0695 91.5798C25.1964 91.5895 25.3177 91.6366 25.418 91.7152C25.5184 91.7938 25.5933 91.9003 25.6333 92.0214C25.6734 92.1425 25.6768 92.2728 25.6432 92.3959C25.6096 92.519 25.5404 92.6293 25.4444 92.7131C25.3484 92.7969 25.2298 92.8504 25.1035 92.8668C25.0186 92.8779 24.9323 92.872 24.8497 92.8493C24.7671 92.8267 24.6898 92.7878 24.6224 92.7349C24.5549 92.6821 24.4986 92.6163 24.4567 92.5414C24.4148 92.4666 24.3883 92.3842 24.3785 92.2989Z" fill="#425AC2"/>
<path d="M31.8267 89.6578C31.7511 89.5551 31.7075 89.4322 31.7014 89.3047C31.6953 89.1772 31.727 89.0507 31.7925 88.9412C31.858 88.8317 31.9543 88.744 32.0694 88.6892C32.1845 88.6344 32.3132 88.6149 32.4393 88.6332C32.5654 88.6515 32.6832 88.7068 32.7781 88.7921C32.8729 88.8773 32.9404 88.9888 32.9722 89.1124C33.0039 89.2361 32.9985 89.3664 32.9565 89.4869C32.9145 89.6074 32.8379 89.7129 32.7363 89.7899C32.5974 89.8909 32.4246 89.9336 32.2547 89.9089C32.0849 89.8842 31.9313 89.7942 31.8267 89.6578Z" fill="#425AC2"/>
<path d="M36.9537 83.5686C36.7966 83.5013 36.6717 83.3756 36.6053 83.2179C36.5389 83.0602 36.5362 82.8829 36.5978 82.7232C36.6675 82.5648 36.7954 82.4395 36.9549 82.3731C37.1145 82.3067 37.2934 82.3044 37.4546 82.3666C37.6125 82.4363 37.7369 82.5652 37.8009 82.7257C37.865 82.8862 37.8637 83.0656 37.7973 83.2251C37.7657 83.3042 37.7184 83.376 37.6585 83.4363C37.5985 83.4966 37.527 83.5443 37.4483 83.5763C37.3695 83.6084 37.2852 83.6242 37.2002 83.6228C37.1152 83.6215 37.0314 83.6031 36.9537 83.5686Z" fill="#425AC2"/>
<path d="M38.3645 75.7632C38.2796 75.7743 38.1933 75.7683 38.1107 75.7456C38.0281 75.723 37.9508 75.6841 37.8833 75.6313C37.8159 75.5784 37.7596 75.5126 37.7177 75.4378C37.6758 75.3629 37.6492 75.2805 37.6395 75.1952C37.6249 75.0684 37.6481 74.9402 37.7061 74.8266C37.7641 74.713 37.8543 74.6192 37.9654 74.5568C38.0765 74.4944 38.2035 74.4663 38.3305 74.4761C38.4575 74.4858 38.5787 74.5329 38.679 74.6115C38.7793 74.6901 38.8542 74.7967 38.8943 74.9178C38.9344 75.0389 38.9378 75.1691 38.9042 75.2922C38.8706 75.4153 38.8014 75.5257 38.7054 75.6095C38.6094 75.6932 38.4908 75.7467 38.3645 75.7632Z" fill="#425AC2"/>
<path d="M35.6882 68.3001C35.5501 68.4034 35.3767 68.4476 35.2061 68.4228C35.0355 68.3981 34.8817 68.3064 34.7786 68.168C34.6755 68.0297 34.6314 67.8559 34.6561 67.685C34.6809 67.5141 34.7723 67.36 34.9104 67.2567C35.0485 67.1533 35.2219 67.1092 35.3925 67.1339C35.5631 67.1587 35.7169 67.2504 35.82 67.3888C35.9231 67.5271 35.9672 67.7009 35.9425 67.8718C35.9177 68.0427 35.8263 68.1967 35.6882 68.3001Z" fill="#425AC2"/>
<path d="M18.5262 69.7733L17.4844 70.625L22.5927 76.8985L23.6345 76.0469L18.5262 69.7733Z" fill="#425AC2"/>
<path d="M35.4656 75.0679L23.3789 76.3472L23.4841 77.3455L35.5709 76.0662L35.4656 75.0679Z" fill="#425AC2"/>
<path d="M25.9869 78.2188C25.7629 78.7924 25.373 79.2859 24.8672 79.636C24.3614 79.986 23.7627 80.1767 23.148 80.1835C22.5333 80.1902 21.9306 80.0128 21.4172 79.6739C20.9039 79.3351 20.5033 78.8503 20.2668 78.2817C20.0304 77.7131 19.9689 77.0867 20.0902 76.4828C20.2116 75.879 20.5102 75.3253 20.9479 74.8927C21.3855 74.4601 21.9421 74.1684 22.5464 74.055C23.1506 73.9416 23.7749 74.0117 24.3391 74.2563C25.0725 74.5743 25.6541 75.1651 25.9615 75.9042C26.2689 76.6433 26.278 77.4731 25.9869 78.2188Z" fill="#FE958E"/>
<path d="M24.1401 53.6787C24.1264 53.2738 24.0734 52.8713 23.9819 52.4767C23.7863 51.5852 23.4173 50.741 22.8961 49.9923C22.3748 49.2436 21.7115 48.6052 20.944 48.1133C20.1765 47.6215 19.3199 47.286 18.423 47.1259C17.5261 46.9658 16.6065 46.9842 15.7167 47.1802C14.8269 47.3763 13.9843 47.7459 13.2371 48.2682C12.4899 48.7905 11.8527 49.4551 11.3618 50.2241C10.871 50.9931 10.5361 51.8514 10.3763 52.7501C10.2166 53.6488 10.235 54.5702 10.4306 55.4618C10.5136 55.8651 10.6372 56.259 10.7997 56.6373L24.1401 53.6787Z" fill="#FFC1C1"/>
<path d="M205.568 90.7274C205.839 90.8394 206.13 90.8964 206.424 90.8952C206.718 90.894 207.008 90.8346 207.279 90.7205C207.55 90.6063 207.796 90.4396 208.002 90.23C208.208 90.0204 208.371 89.7719 208.481 89.499C208.702 88.9508 208.698 88.3368 208.468 87.7919C208.238 87.2471 207.802 86.816 207.255 86.5932L202.325 84.5724C201.776 84.3498 201.161 84.3541 200.615 84.5843C200.069 84.8145 199.636 85.2518 199.411 85.8007C199.3 86.0729 199.243 86.3646 199.244 86.659C199.245 86.9533 199.304 87.2445 199.418 87.5158C199.532 87.7871 199.699 88.0331 199.908 88.2398C200.117 88.4464 200.365 88.6095 200.637 88.7197L205.568 90.7274Z" fill="#8EA8DD"/>
<path d="M180.996 101.11C180.771 101.659 180.338 102.096 179.792 102.326C179.246 102.556 178.632 102.561 178.082 102.338C177.81 102.228 177.562 102.065 177.353 101.858C177.144 101.651 176.977 101.405 176.863 101.134C176.749 100.863 176.69 100.572 176.689 100.277C176.688 99.9829 176.745 99.6912 176.857 99.419L178.86 94.4791C179.085 93.9302 179.518 93.4929 180.064 93.2627C180.61 93.0325 181.224 93.0282 181.773 93.2508C182.046 93.361 182.294 93.5241 182.503 93.7308C182.712 93.9374 182.879 94.1834 182.993 94.4547C183.106 94.726 183.166 95.0172 183.167 95.3116C183.168 95.6059 183.111 95.8976 182.999 96.1698L180.996 101.11Z" fill="#8EA8DD"/>
<path d="M186.729 52.595C186.951 51.45 186.832 50.2649 186.387 49.1872C184.699 45.2248 178.635 43.904 172.848 46.3343C167.062 48.7646 163.753 54.0215 165.44 58.0367C165.861 59.0258 166.545 59.8801 167.417 60.5067L168.564 58.9349C167.984 58.5143 167.528 57.9437 167.246 57.2839C165.994 54.312 168.92 50.1118 173.626 48.1306C178.332 46.1494 183.355 46.9815 184.607 49.9533C184.908 50.6801 184.986 51.4802 184.831 52.2516L186.729 52.595Z" fill="#A4B8EA"/>
<path d="M166.204 59.6012L161.004 67.1909L166.894 71.2426L172.094 63.6529L166.204 59.6012Z" fill="#FE958E"/>
<path d="M169.79 59.5818C169.485 59.3094 169.159 59.062 168.815 58.8422C167.996 58.3232 167.079 57.9812 166.121 57.8383C165.164 57.6954 164.187 57.7547 163.253 58.0123C162.32 58.27 161.45 58.7203 160.701 59.3344C159.951 59.9485 159.338 60.7129 158.901 61.5784C158.463 62.4439 158.211 63.3915 158.161 64.3603C158.11 65.3292 158.262 66.2979 158.608 67.2044C158.953 68.1108 159.483 68.935 160.165 69.6239C160.847 70.3129 161.665 70.8514 162.566 71.205L169.79 59.5818Z" fill="#425AC2"/>
<path d="M188.202 48.5588L186.988 55.646L196.084 57.211L197.298 50.1238L188.202 48.5588Z" fill="#FE958E"/>
<path d="M193.416 96.669C204.232 92.297 209.463 79.9673 205.1 69.1299C200.736 58.2925 188.431 53.0513 177.615 57.4233C166.799 61.7953 161.568 74.1249 165.931 84.9623C170.295 95.7998 182.6 101.041 193.416 96.669Z" fill="#425AC2"/>
<path d="M169.343 83.8583C170.692 87.0644 172.96 89.7976 175.86 91.7122C178.759 93.6269 182.161 94.6371 185.633 94.6151C189.106 94.5931 192.494 93.5399 195.369 91.5886C198.244 89.6373 200.477 86.8756 201.786 83.6527C203.095 80.4298 203.42 76.8904 202.722 73.4821C202.023 70.0737 200.331 66.9496 197.86 64.5046C195.389 62.0596 192.251 60.4036 188.841 59.746C185.431 59.0884 181.902 59.4587 178.702 60.8101C176.577 61.7075 174.65 63.0156 173.029 64.6596C171.409 66.3036 170.127 68.2514 169.258 70.3917C168.389 72.532 167.949 74.8229 167.964 77.1335C167.978 79.4441 168.447 81.7292 169.343 83.8583Z" fill="#FEE2E3"/>
<path d="M178.992 63.1621C179.059 63.3195 179.184 63.4446 179.342 63.5112C179.499 63.5777 179.676 63.5804 179.835 63.5187C179.914 63.4857 179.986 63.4376 180.046 63.3769C180.106 63.3163 180.154 63.2443 180.186 63.1652C180.219 63.0861 180.235 63.0014 180.235 62.9158C180.235 62.8303 180.218 62.7457 180.185 62.6668C180.152 62.5879 180.104 62.5162 180.043 62.4559C179.983 62.3956 179.911 62.3478 179.832 62.3153C179.753 62.2828 179.668 62.2662 179.583 62.2665C179.498 62.2667 179.413 62.2838 179.334 62.3167C179.177 62.3837 179.053 62.5102 178.989 62.6686C178.925 62.827 178.926 63.0044 178.992 63.1621Z" fill="#425AC2"/>
<path d="M186.809 61.7489C186.798 61.834 186.804 61.9204 186.826 62.0032C186.849 62.086 186.888 62.1634 186.94 62.231C186.993 62.2986 187.059 62.355 187.133 62.397C187.208 62.4389 187.29 62.4656 187.375 62.4754C187.461 62.4904 187.549 62.4878 187.634 62.4677C187.719 62.4477 187.799 62.4106 187.869 62.3588C187.94 62.3069 187.999 62.2414 188.043 62.1661C188.087 62.0908 188.116 62.0073 188.127 61.9206C188.138 61.8355 188.132 61.7491 188.109 61.6663C188.087 61.5836 188.048 61.5061 187.995 61.4385C187.942 61.3709 187.877 61.3145 187.802 61.2725C187.727 61.2306 187.645 61.204 187.56 61.1942C187.474 61.1772 187.385 61.1784 187.299 61.1976C187.214 61.2168 187.133 61.2537 187.062 61.3058C186.992 61.358 186.933 61.4243 186.889 61.5006C186.845 61.5769 186.818 61.6615 186.809 61.7489Z" fill="#425AC2"/>
<path d="M194.23 64.4295C194.127 64.5679 194.083 64.7416 194.108 64.9125C194.133 65.0835 194.224 65.2375 194.362 65.3409C194.5 65.4442 194.674 65.4883 194.844 65.4636C195.015 65.4388 195.169 65.3471 195.272 65.2088C195.375 65.0704 195.419 64.8967 195.394 64.7258C195.37 64.5548 195.278 64.4007 195.14 64.2974C195.072 64.2462 194.994 64.2091 194.911 64.188C194.828 64.167 194.742 64.1624 194.658 64.1747C194.487 64.1995 194.334 64.2911 194.23 64.4295Z" fill="#425AC2"/>
<path d="M199.358 70.48C199.198 70.5466 199.072 70.6737 199.007 70.8335C198.941 70.9932 198.942 71.1725 199.008 71.3319C199.075 71.4913 199.202 71.6177 199.361 71.6834C199.52 71.749 199.699 71.7485 199.858 71.682C199.937 71.6502 200.009 71.6029 200.069 71.5428C200.129 71.4827 200.177 71.4111 200.209 71.3322C200.241 71.2533 200.257 71.1688 200.255 71.0836C200.254 70.9985 200.236 70.9145 200.201 70.8366C200.169 70.7576 200.122 70.6856 200.062 70.6248C200.003 70.5641 199.932 70.5158 199.853 70.4826C199.775 70.4495 199.691 70.4322 199.606 70.4318C199.521 70.4313 199.436 70.4477 199.358 70.48Z" fill="#425AC2"/>
<path d="M200.768 78.2845C200.683 78.2735 200.597 78.2794 200.514 78.3021C200.432 78.3247 200.355 78.3636 200.287 78.4164C200.22 78.4693 200.163 78.535 200.121 78.6099C200.08 78.6847 200.053 78.7672 200.043 78.8525C200.024 79.0237 200.073 79.1955 200.179 79.3312C200.285 79.4669 200.44 79.5558 200.61 79.5789C200.779 79.5975 200.949 79.5482 201.083 79.4418C201.216 79.3355 201.302 79.1806 201.322 79.011C201.344 78.8411 201.299 78.6692 201.195 78.5331C201.091 78.3969 200.938 78.3075 200.768 78.2845Z" fill="#425AC2"/>
<path d="M198.092 85.7615C198.025 85.7038 197.947 85.6604 197.863 85.634C197.779 85.6076 197.69 85.5988 197.602 85.6082C197.515 85.6175 197.43 85.6449 197.353 85.6884C197.276 85.7319 197.209 85.7908 197.155 85.8613C197.102 85.9319 197.064 86.0126 197.043 86.0986C197.022 86.1845 197.019 86.2739 197.034 86.3611C197.049 86.4483 197.081 86.5315 197.13 86.6056C197.178 86.6796 197.241 86.743 197.315 86.7917C197.452 86.8942 197.624 86.9391 197.793 86.9169C197.963 86.8947 198.118 86.8072 198.224 86.6729C198.276 86.6046 198.313 86.5267 198.335 86.4437C198.356 86.3608 198.36 86.2744 198.348 86.1896C198.336 86.1049 198.307 86.0234 198.263 85.9499C198.219 85.8764 198.161 85.8123 198.092 85.7615Z" fill="#425AC2"/>
<path d="M192.082 90.886C192.013 90.7278 191.884 90.6032 191.724 90.539C191.564 90.4748 191.385 90.4761 191.225 90.5426C191.068 90.6096 190.944 90.7361 190.88 90.8945C190.816 91.0528 190.817 91.2302 190.883 91.3879C190.952 91.5461 191.081 91.6707 191.241 91.7349C191.401 91.7991 191.58 91.7979 191.739 91.7313C191.896 91.6644 192.021 91.5379 192.085 91.3795C192.149 91.2211 192.148 91.0437 192.082 90.886Z" fill="#425AC2"/>
<path d="M184.265 92.2989C184.28 92.1721 184.257 92.0439 184.199 91.9303C184.141 91.8167 184.051 91.7228 183.94 91.6605C183.828 91.5981 183.701 91.57 183.574 91.5798C183.447 91.5895 183.326 91.6366 183.226 91.7152C183.126 91.7938 183.051 91.9003 183.011 92.0214C182.971 92.1425 182.967 92.2728 183.001 92.3959C183.034 92.519 183.103 92.6293 183.2 92.7131C183.296 92.7969 183.414 92.8504 183.54 92.8668C183.711 92.8856 183.883 92.8368 184.018 92.7306C184.154 92.6245 184.242 92.4696 184.265 92.2989Z" fill="#425AC2"/>
<path d="M176.803 89.6565C176.856 89.589 176.894 89.5118 176.916 89.4293C176.939 89.3469 176.945 89.2608 176.934 89.1761C176.923 89.0914 176.895 89.0097 176.852 88.9357C176.809 88.8617 176.753 88.797 176.685 88.7452C176.616 88.694 176.539 88.6568 176.456 88.6358C176.373 88.6147 176.287 88.6102 176.203 88.6225C176.032 88.6472 175.878 88.7389 175.775 88.8772C175.672 89.0156 175.628 89.1893 175.653 89.3603C175.677 89.5312 175.769 89.6853 175.907 89.7886C175.974 89.8399 176.051 89.8773 176.133 89.8985C176.214 89.9196 176.299 89.9242 176.383 89.9119C176.467 89.8996 176.547 89.8706 176.619 89.8268C176.691 89.7829 176.754 89.725 176.803 89.6565Z" fill="#425AC2"/>
<path d="M171.689 83.569C171.768 83.5373 171.839 83.49 171.9 83.4299C171.96 83.3698 172.007 83.2982 172.039 83.2193C172.071 83.1404 172.087 83.0559 172.086 82.9707C172.084 82.8856 172.066 82.8015 172.031 82.7237C172.003 82.6389 171.958 82.5609 171.898 82.4945C171.839 82.4282 171.766 82.3749 171.685 82.338C171.604 82.3012 171.516 82.2815 171.427 82.2804C171.338 82.2792 171.249 82.2966 171.167 82.3313C171.085 82.366 171.011 82.4174 170.95 82.4822C170.888 82.547 170.841 82.6239 170.811 82.7079C170.781 82.7919 170.768 82.8812 170.774 82.9703C170.78 83.0594 170.804 83.1463 170.845 83.2256C170.877 83.3046 170.924 83.3764 170.984 83.4368C171.044 83.4971 171.115 83.5448 171.194 83.5768C171.273 83.6089 171.357 83.6247 171.442 83.6233C171.527 83.622 171.611 83.6036 171.689 83.569Z" fill="#425AC2"/>
<path d="M170.279 75.763C170.364 75.7741 170.45 75.7681 170.532 75.7454C170.615 75.7228 170.692 75.6839 170.76 75.6311C170.827 75.5782 170.884 75.5124 170.925 75.4376C170.967 75.3627 170.994 75.2803 171.004 75.195C171.014 75.1083 171.007 75.0204 170.984 74.9363C170.96 74.8522 170.92 74.7735 170.867 74.7048C170.813 74.6361 170.746 74.5788 170.67 74.536C170.594 74.4932 170.51 74.4658 170.424 74.4554C170.337 74.445 170.249 74.4517 170.165 74.4753C170.081 74.4989 170.003 74.5388 169.934 74.5928C169.866 74.6467 169.809 74.7137 169.766 74.7898C169.723 74.866 169.696 74.9498 169.686 75.0365C169.675 75.1236 169.681 75.2121 169.706 75.2965C169.73 75.3809 169.771 75.4594 169.826 75.5274C169.882 75.5954 169.951 75.6513 170.028 75.6918C170.106 75.7323 170.191 75.7565 170.279 75.763Z" fill="#425AC2"/>
<path d="M172.954 68.3002C173.057 68.3759 173.18 68.4196 173.307 68.4257C173.434 68.4318 173.56 68.4001 173.67 68.3345C173.779 68.2689 173.866 68.1724 173.921 68.057C173.976 67.9417 173.995 67.8128 173.977 67.6865C173.959 67.5601 173.904 67.442 173.818 67.347C173.733 67.252 173.622 67.1843 173.499 67.1525C173.375 67.1207 173.245 67.1262 173.125 67.1682C173.005 67.2103 172.899 67.287 172.823 67.3889C172.722 67.5281 172.679 67.7012 172.704 67.8713C172.728 68.0415 172.818 68.1954 172.954 68.3002Z" fill="#425AC2"/>
<path d="M190.088 69.7067L184.979 75.9802L186.021 76.8319L191.129 70.5584L190.088 69.7067Z" fill="#425AC2"/>
<path d="M173.138 75.0291L173.033 76.0273L185.12 77.3066L185.225 76.3083L173.138 75.0291Z" fill="#425AC2"/>
<path d="M182.683 78.2188C182.907 78.7924 183.297 79.2859 183.803 79.636C184.309 79.986 184.908 80.1767 185.522 80.1835C186.137 80.1902 186.74 80.0128 187.253 79.6739C187.766 79.3351 188.167 78.8503 188.403 78.2817C188.64 77.7131 188.701 77.0867 188.58 76.4828C188.459 75.879 188.16 75.3253 187.722 74.8927C187.285 74.4601 186.728 74.1684 186.124 74.055C185.52 73.9416 184.895 74.0117 184.331 74.2563C183.598 74.5743 183.016 75.1651 182.709 75.9042C182.401 76.6433 182.392 77.4731 182.683 78.2188Z" fill="#FE958E"/>
<path d="M184.502 53.6787C184.516 53.2739 184.569 52.8713 184.66 52.4768C185.055 50.6762 186.148 49.1067 187.698 48.1134C189.248 47.1201 191.128 46.7844 192.925 47.1803C194.722 47.5761 196.289 48.671 197.28 50.2241C198.272 51.7772 198.606 53.6612 198.211 55.4618C198.122 55.8635 197.999 56.2569 197.842 56.6373L184.502 53.6787Z" fill="#425AC2"/>
<path d="M124.246 183.818H83.157L84.2511 271.771H92.0945C92.0945 271.771 98.0397 227.523 100.267 203.088H105.712L107.346 271.771H115.256C115.256 271.771 124.483 202.784 124.259 189.484C124.358 187.596 124.354 185.705 124.246 183.818Z" fill="#A4B8EA"/>
<path d="M124.247 183.819H83.158L78.017 129.124C77.5688 124.673 81.8662 120.842 87.3368 120.842H120.055C125.526 120.842 129.836 124.673 129.375 129.124L124.247 183.819Z" fill="#0E24A5"/>
<path d="M101.744 130.907C101.864 131.218 102.073 131.487 102.344 131.682C102.615 131.876 102.937 131.987 103.269 132.001C103.602 132.015 103.932 131.932 104.218 131.761C104.505 131.59 104.735 131.339 104.881 131.039C106.714 127.288 110.734 121.674 110.734 120.473V112.402C110.734 110.566 108.005 110.725 106.397 110.725H101.124C99.5161 110.725 96.7874 112.204 96.7874 114.04V120.473C96.8401 121.661 100.294 127.156 101.744 130.907Z" fill="#E98896"/>
<path d="M97.9484 115.73C103.379 120.749 108.151 119.124 111.895 112.745C116.338 105.163 117.854 96.8949 112.422 91.9286C111.227 90.7357 109.798 89.8026 108.226 89.1878C106.654 88.573 104.973 88.2895 103.287 88.3552C101.6 88.4209 99.9458 88.8344 98.4263 89.5696C96.9068 90.3049 95.5549 91.3463 94.4551 92.6287C89.4591 98.0704 92.5174 110.79 97.9484 115.73Z" fill="#FFA6AD"/>
<path d="M95.1262 135.147L65.7299 147.272C64.3836 147.824 62.9029 147.96 61.4789 147.661C60.0549 147.362 58.7531 146.642 57.7415 145.594L31.3772 118.385L36.4919 112.574L62.118 132.082C62.118 132.082 77.5148 122.837 83.6841 121.212C86.4391 120.499 93.2807 127.922 93.2807 127.922L95.1262 135.147Z" fill="#0E24A5"/>
<path d="M84.1323 271.652H92.1207V277.78H75.933C74.8653 277.78 74.4961 275.377 75.4321 274.861L84.1323 271.652Z" fill="#112256"/>
<path d="M115.361 271.652H107.385V277.78H123.534C124.601 277.78 124.971 275.377 124.035 274.861L115.361 271.652Z" fill="#112256"/>
<mask id="mask0_43_2428" style="mask-type:alpha" maskUnits="userSpaceOnUse" x="83" y="183" width="42" height="89">
<path d="M124.246 183.819H83.1572L84.2514 271.772H92.0947C92.0947 271.772 98.0399 227.524 100.268 203.089H105.712L107.347 271.772H115.256C115.256 271.772 124.483 202.785 124.259 189.485C124.359 187.597 124.354 185.706 124.246 183.819Z" fill="#A4B8EA"/>
</mask>
<g mask="url(#mask0_43_2428)">
<path d="M87.929 174.388H86.2417V281.189H87.929V174.388Z" fill="#03053F"/>
<path d="M92.5689 174.388H90.8816V281.189H92.5689V174.388Z" fill="#03053F"/>
<path d="M97.2093 174.388H95.522V281.189H97.2093V174.388Z" fill="#03053F"/>
<path d="M101.862 174.388H100.175V281.189H101.862V174.388Z" fill="#03053F"/>
<path d="M106.503 174.388H104.815V281.189H106.503V174.388Z" fill="#03053F"/>
<path d="M111.143 174.388H109.456V281.189H111.143V174.388Z" fill="#03053F"/>
<path d="M115.796 174.388H114.109V281.189H115.796V174.388Z" fill="#03053F"/>
<path d="M120.436 174.388H118.749V281.189H120.436V174.388Z" fill="#03053F"/>
</g>
<path d="M124.273 183.818H83.1443V186.737H124.273V183.818Z" fill="#FFC1C1"/>
<path d="M36.532 112.572C36.532 112.572 37.9425 105.968 36.3475 105.968C34.7524 105.968 34.2251 109.865 33.5397 110.076C32.0105 110.552 29.9541 108.372 27.6604 106.431C25.3667 104.489 21.5834 104.78 21.7416 106.787C22.0316 110.67 31.4173 118.424 31.4173 118.424L36.532 112.572Z" fill="#E98896"/>
<path d="M111.881 135.147L141.277 147.272C142.623 147.824 144.104 147.96 145.528 147.661C146.952 147.362 148.254 146.642 149.265 145.594L175.63 118.385L170.515 112.574L144.889 132.082C144.889 132.082 129.492 122.837 123.336 121.212C120.568 120.499 113.739 127.922 113.739 127.922L111.881 135.147Z" fill="#0E24A5"/>
<path d="M170.475 112.572C170.475 112.572 169.078 105.968 170.66 105.968C172.242 105.968 172.782 109.865 173.481 110.076C174.997 110.552 177.053 108.372 179.347 106.431C181.641 104.489 185.424 104.78 185.279 106.787C184.976 110.67 175.59 118.424 175.59 118.424L170.475 112.572Z" fill="#E98896"/>
<path d="M50.5842 182.762C50.5842 183.806 50.8935 184.828 51.4728 185.697C52.0522 186.566 52.8758 187.243 53.8393 187.643C54.8028 188.043 55.863 188.147 56.8858 187.943C57.9086 187.739 58.8482 187.236 59.5856 186.497C60.323 185.758 60.8252 184.817 61.0286 183.792C61.2321 182.767 61.1277 181.705 60.7286 180.74C60.3295 179.774 59.6537 178.949 58.7866 178.369C57.9194 177.788 56.9 177.478 55.8571 177.478C54.4586 177.478 53.1175 178.035 52.1286 179.026C51.1398 180.017 50.5842 181.36 50.5842 182.762ZM52.4825 182.762C52.4799 182.082 52.6786 181.417 53.0536 180.85C53.4286 180.284 53.9631 179.841 54.5891 179.579C55.2151 179.317 55.9046 179.248 56.5704 179.379C57.2361 179.51 57.848 179.836 58.3286 180.315C58.8093 180.795 59.137 181.407 59.2704 182.074C59.4037 182.74 59.3366 183.431 59.0775 184.059C58.8185 184.688 58.3792 185.225 57.8153 185.603C57.2514 185.981 56.5883 186.182 55.9098 186.182C55.0031 186.182 54.1333 185.822 53.491 185.181C52.8486 184.54 52.486 183.67 52.4825 182.762Z" fill="#FE958E"/>
<path d="M57.1622 172.736H39.5376L42.899 192.073H53.8007L57.1622 172.736Z" fill="#FE958E"/>
<path d="M140.011 188.15H178.516L183.789 164.27H145.297L140.011 188.15Z" fill="#BBBBBB"/>
<path d="M178.544 187.991H130.587V192.06H178.544V187.991Z" fill="#BBBBBB"/>
<path d="M160.128 176.831C160.128 177.333 160.277 177.823 160.555 178.24C160.833 178.657 161.228 178.982 161.691 179.174C162.153 179.366 162.662 179.416 163.153 179.319C163.644 179.221 164.095 178.979 164.449 178.625C164.803 178.27 165.044 177.818 165.141 177.326C165.239 176.834 165.189 176.324 164.997 175.861C164.806 175.397 164.482 175.001 164.065 174.723C163.649 174.444 163.16 174.295 162.659 174.295C162.327 174.295 161.998 174.361 161.691 174.488C161.384 174.616 161.104 174.803 160.869 175.038C160.634 175.274 160.448 175.553 160.321 175.861C160.194 176.169 160.128 176.498 160.128 176.831Z" fill="#4E687F"/>
<path d="M97.9484 115.73C103.379 120.749 108.151 119.124 111.895 112.745C116.338 105.163 117.854 96.8949 112.422 91.9286C111.227 90.7357 109.798 89.8026 108.226 89.1878C106.654 88.573 104.973 88.2895 103.287 88.3552C101.6 88.4209 99.9458 88.8344 98.4263 89.5696C96.9068 90.3049 95.5549 91.3463 94.4551 92.6287C89.4591 98.0704 92.5174 110.79 97.9484 115.73Z" fill="#E98896"/>
<path d="M92.2534 111.068C91.1988 108.241 91.4361 102.099 94.6394 102.694C97.0122 103.13 94.8108 106.392 96.9199 106.749C99.0291 107.105 94.7185 96.9613 100.097 94.3989C105.212 91.9554 110.643 93.4215 111.012 99.6822C111.328 105.322 109.245 107.435 111.012 107.435C112.778 107.435 111.012 103.552 114.175 103.909C117.339 104.265 117.352 112.032 119.106 112.032C120.859 112.032 119.817 87.3325 119.817 87.3325L94.4549 83.0531L87.7715 97.1726L92.2534 111.068Z" fill="#425AC2"/>
</svg>
