<svg width="25" height="24" viewBox="0 0 25 24" fill="none" xmlns="http://www.w3.org/2000/svg">
<path d="M23.001 12.2332C23.001 11.3699 22.9296 10.7399 22.7748 10.0865H12.7153V13.9832H18.62C18.501 14.9515 17.8582 16.4099 16.4296 17.3898L16.4096 17.5203L19.5902 19.935L19.8106 19.9565C21.8343 18.1249 23.001 15.4298 23.001 12.2332Z" fill="#4285F4"/>
<path d="M12.7147 22.5C15.6075 22.5 18.036 21.5666 19.8099 19.9567L16.4289 17.3899C15.5242 18.0083 14.3099 18.4399 12.7147 18.4399C9.88136 18.4399 7.47663 16.6083 6.61941 14.0766L6.49376 14.0871L3.1865 16.5954L3.14325 16.7132C4.90513 20.1433 8.52417 22.5 12.7147 22.5Z" fill="#34A853"/>
<path d="M6.62003 14.0767C6.39385 13.4233 6.26295 12.7233 6.26295 12C6.26295 11.2766 6.39385 10.5766 6.60813 9.92331L6.60214 9.78417L3.25343 7.23553L3.14387 7.28661C2.41771 8.70996 2.00104 10.3083 2.00104 12C2.00104 13.6916 2.41771 15.2899 3.14387 16.7133L6.62003 14.0767Z" fill="#FBBC05"/>
<path d="M12.7147 5.55997C14.7266 5.55997 16.0837 6.41163 16.8576 7.12335L19.8814 4.23C18.0243 2.53834 15.6075 1.5 12.7147 1.5C8.5242 1.5 4.90514 3.85665 3.14325 7.28662L6.60753 9.92332C7.47665 7.39166 9.8814 5.55997 12.7147 5.55997Z" fill="#EB4335"/>
</svg>
